<?xml version="1.0" encoding="UTF-8"?>
<!DOCTYPE svg PUBLIC "-//W3C//DTD SVG 1.1//EN" "http://www.w3.org/Graphics/SVG/1.1/DTD/svg11.dtd">
<svg xmlns="http://www.w3.org/2000/svg" version="1.1" width="1024px" height="1024px" style="shape-rendering:geometricPrecision; text-rendering:geometricPrecision; image-rendering:optimizeQuality; fill-rule:evenodd; clip-rule:evenodd" xmlns:xlink="http://www.w3.org/1999/xlink">
<g><path style="opacity:0.995" fill="#e38735" d="M 889.5,318.5 C 906.322,319.152 914.156,327.818 913,344.5C 906.216,360.097 895.05,364.264 879.5,357C 868.974,347.601 867.807,337.101 876,325.5C 879.975,321.931 884.475,319.597 889.5,318.5 Z"/></g>
<g><path style="opacity:0.995" fill="#030303" d="M 559.5,322.5 C 571.833,322.5 584.167,322.5 596.5,322.5C 596.167,347.842 596.5,373.175 597.5,398.5C 598.107,398.376 598.44,398.043 598.5,397.5C 604.842,381.49 616.508,372.156 633.5,369.5C 641.833,369.5 650.167,369.5 658.5,369.5C 673.122,372.064 683.622,380.064 690,393.5C 692.418,398.586 693.918,403.919 694.5,409.5C 694.444,414.731 695.111,419.731 696.5,424.5C 696.5,425.833 696.5,427.167 696.5,428.5C 696.5,518.5 696.5,608.5 696.5,698.5C 684.167,698.5 671.833,698.5 659.5,698.5C 659.832,639.998 659.499,581.664 658.5,523.5C 658.667,492.832 658.5,462.165 658,431.5C 657.51,406.497 645.01,396.664 620.5,402C 611.822,404.678 605.655,410.178 602,418.5C 599.787,425.735 598.287,433.068 597.5,440.5C 596.502,465.995 596.169,491.661 596.5,517.5C 584.167,517.5 571.833,517.5 559.5,517.5C 559.5,452.5 559.5,387.5 559.5,322.5 Z"/></g>
<g><path style="opacity:0.995" fill="#060606" d="M 283.5,391.5 C 283.337,393.857 283.503,396.19 284,398.5C 284.717,397.956 285.217,397.289 285.5,396.5C 295.418,377.191 311.418,367.524 333.5,367.5C 359.493,367.636 375.159,380.302 380.5,405.5C 380.425,409.897 380.925,414.23 382,418.5C 382.5,451.498 382.667,484.498 382.5,517.5C 370.167,517.5 357.833,517.5 345.5,517.5C 345.831,487.329 345.498,457.329 344.5,427.5C 343.16,406.813 332.16,397.98 311.5,401C 297.463,403.37 288.963,411.537 286,425.5C 285.39,428.827 284.89,432.161 284.5,435.5C 283.698,436.952 283.198,438.618 283,440.5C 282.5,466.165 282.333,491.831 282.5,517.5C 277.5,517.5 272.5,517.5 267.5,517.5C 267.5,526.833 267.5,536.167 267.5,545.5C 279.833,545.5 292.167,545.5 304.5,545.5C 305.833,556.5 305.833,567.5 304.5,578.5C 291.833,578.5 279.167,578.5 266.5,578.5C 266.169,602.672 266.502,626.672 267.5,650.5C 267.712,656.762 270.378,661.595 275.5,665C 285.358,667.824 295.358,668.324 305.5,666.5C 306.166,671.322 306.499,676.322 306.5,681.5C 306.449,687.079 305.782,692.412 304.5,697.5C 291.538,701.213 278.205,702.38 264.5,701C 243.812,696.977 231.979,684.477 229,663.5C 228.503,660.854 228.336,658.187 228.5,655.5C 228.5,629.833 228.5,604.167 228.5,578.5C 218.833,578.5 209.167,578.5 199.5,578.5C 199.5,567.5 199.5,556.5 199.5,545.5C 208.5,545.5 217.5,545.5 226.5,545.5C 228.473,536.225 229.14,526.558 228.5,516.5C 234.167,516.5 239.833,516.5 245.5,516.5C 245.832,468.664 245.499,420.997 244.5,373.5C 243.338,356.672 243.172,339.672 244,322.5C 257.091,321.345 270.258,321.178 283.5,322C 284.809,345.125 284.809,368.291 283.5,391.5 Z"/></g>
<g><path style="opacity:0.111" fill="#aaaaa9" d="M 598.5,397.5 C 598.44,398.043 598.107,398.376 597.5,398.5C 596.5,373.175 596.167,347.842 596.5,322.5C 584.167,322.5 571.833,322.5 559.5,322.5C 558.502,358.663 558.168,394.996 558.5,431.5C 557.502,395.004 557.168,358.337 557.5,321.5C 570.833,321.5 584.167,321.5 597.5,321.5C 597.169,347.005 597.502,372.339 598.5,397.5 Z"/></g>
<g><path style="opacity:0.094" fill="#92908f" d="M 198.5,368.5 C 186.833,367.167 175.167,367.167 163.5,368.5C 175.167,365.833 186.833,365.833 198.5,368.5 Z"/></g>
<g><path style="opacity:0.995" fill="#080808" d="M 198.5,368.5 C 214.508,370.833 227.841,377.833 238.5,389.5C 232.178,400.137 225.344,410.471 218,420.5C 208.842,408.212 196.509,402.212 181,402.5C 158.56,403.605 145.56,415.272 142,437.5C 139.134,462.077 149.3,478.077 172.5,485.5C 175.215,486.886 178.215,487.553 181.5,487.5C 187.128,487.305 192.461,486.305 197.5,484.5C 204.216,481.965 210.216,478.131 215.5,473C 216.5,472.333 217.5,472.333 218.5,473C 225.866,482.233 232.866,491.733 239.5,501.5C 228.761,511.536 216.094,517.869 201.5,520.5C 188.832,521.802 176.165,521.802 163.5,520.5C 137.13,515.305 118.63,500.305 108,475.5C 106.648,472.28 105.814,468.947 105.5,465.5C 103.994,454.558 103.328,443.558 103.5,432.5C 103.549,428.922 104.215,425.589 105.5,422.5C 106.924,420.485 107.59,418.152 107.5,415.5C 117.442,389.518 136.108,373.851 163.5,368.5C 175.167,367.167 186.833,367.167 198.5,368.5 Z"/></g>
<g><path style="opacity:0.886" fill="#585858" d="M 658.5,369.5 C 650.167,369.5 641.833,369.5 633.5,369.5C 637.339,368.707 641.339,368.04 645.5,367.5C 649.992,368.051 654.326,368.718 658.5,369.5 Z"/></g>
<g><path style="opacity:0.994" fill="#0b0b0b" d="M 754.5,429.5 C 760.051,429.473 765.384,428.806 770.5,427.5C 783.61,426.676 796.61,427.676 809.5,430.5C 810.132,421.284 808.298,412.617 804,404.5C 797.153,398.662 789.153,395.995 780,396.5C 765.248,396.134 752.748,401.134 742.5,411.5C 734.167,404.167 725.833,396.833 717.5,389.5C 716.269,388.349 716.269,387.183 717.5,386C 728.651,378.094 740.984,372.927 754.5,370.5C 759.414,370.638 764.081,369.972 768.5,368.5C 784.707,366.246 800.707,367.746 816.5,373C 836.243,382.1 846.41,397.6 847,419.5C 847.667,452.167 847.667,484.833 847,517.5C 834.58,518.489 822.08,518.822 809.5,518.5C 809.133,512.828 808.633,507.161 808,501.5C 796.547,515.777 781.547,522.777 763,522.5C 723.896,521.074 706.896,501.074 712,462.5C 716.277,448.219 725.444,438.386 739.5,433C 744.402,431.358 749.402,430.191 754.5,429.5 Z M 798.5,449.5 C 801.946,450.687 805.613,451.354 809.5,451.5C 810.817,463.08 808.984,474.08 804,484.5C 793.545,495.982 780.712,499.816 765.5,496C 751.426,491.702 745.592,482.202 748,467.5C 750.867,457.463 757.367,451.463 767.5,449.5C 777.833,448.167 788.167,448.167 798.5,449.5 Z"/></g>
<g><path style="opacity:0.941" fill="#454545" d="M 768.5,368.5 C 764.081,369.972 759.414,370.638 754.5,370.5C 758.919,369.028 763.586,368.362 768.5,368.5 Z"/></g>
<g><path style="opacity:0.995" fill="#040405" d="M 441.5,459.5 C 441.106,479.606 450.939,489.606 471,489.5C 484.78,490.456 494.447,484.789 500,472.5C 501.16,467.547 501.993,462.547 502.5,457.5C 503.498,429.338 503.831,401.005 503.5,372.5C 515.833,372.5 528.167,372.5 540.5,372.5C 540.5,403.5 540.5,434.5 540.5,465.5C 536.422,499.886 517.089,518.553 482.5,521.5C 472.148,521.601 461.815,521.267 451.5,520.5C 451.167,520.5 450.833,520.5 450.5,520.5C 448.485,519.076 446.152,518.41 443.5,518.5C 425.02,513.522 412.853,501.855 407,483.5C 404.994,476.969 403.827,470.302 403.5,463.5C 403.5,433.167 403.5,402.833 403.5,372.5C 415.833,372.5 428.167,372.5 440.5,372.5C 440.169,401.671 440.502,430.671 441.5,459.5 Z"/></g>
<g><path style="opacity:0.995" fill="#010102" d="M 872.5,372.5 C 884.833,372.5 897.167,372.5 909.5,372.5C 909.5,420.833 909.5,469.167 909.5,517.5C 897.167,517.5 884.833,517.5 872.5,517.5C 872.5,469.167 872.5,420.833 872.5,372.5 Z"/></g>
<g><path style="opacity:0.218" fill="#767574" d="M 540.5,465.5 C 540.5,434.5 540.5,403.5 540.5,372.5C 528.167,372.5 515.833,372.5 503.5,372.5C 503.831,401.005 503.498,429.338 502.5,457.5C 502.5,428.833 502.5,400.167 502.5,371.5C 515.5,371.5 528.5,371.5 541.5,371.5C 541.832,403.004 541.498,434.338 540.5,465.5 Z"/></g>
<g><path style="opacity:0.597" fill="#3b3a3b" d="M 559.5,322.5 C 559.5,387.5 559.5,452.5 559.5,517.5C 571.833,517.5 584.167,517.5 596.5,517.5C 596.169,491.661 596.502,465.995 597.5,440.5C 597.5,466.5 597.5,492.5 597.5,518.5C 584.5,518.5 571.5,518.5 558.5,518.5C 558.464,489.334 558.464,460.334 558.5,431.5C 558.168,394.996 558.502,358.663 559.5,322.5 Z"/></g>
<g><path style="opacity:0.02" fill="#b9b9b9" d="M 283.5,391.5 C 284.167,393.167 284.833,394.833 285.5,396.5C 285.217,397.289 284.717,397.956 284,398.5C 283.503,396.19 283.337,393.857 283.5,391.5 Z"/></g>
<g><path style="opacity:0.169" fill="#6b6c6a" d="M 441.5,459.5 C 440.502,430.671 440.169,401.671 440.5,372.5C 428.167,372.5 415.833,372.5 403.5,372.5C 403.5,402.833 403.5,433.167 403.5,463.5C 402.502,433.005 402.169,402.338 402.5,371.5C 415.5,371.5 428.5,371.5 441.5,371.5C 441.5,400.833 441.5,430.167 441.5,459.5 Z"/></g>
<g><path style="opacity:0.492" fill="#474746" d="M 871.5,372.5 C 871.833,372.5 872.167,372.5 872.5,372.5C 872.5,420.833 872.5,469.167 872.5,517.5C 884.833,517.5 897.167,517.5 909.5,517.5C 909.5,517.833 909.5,518.167 909.5,518.5C 896.833,518.5 884.167,518.5 871.5,518.5C 871.5,469.833 871.5,421.167 871.5,372.5 Z"/></g>
<g><path style="opacity:0.136" fill="#8e8e8b" d="M 871.5,372.5 C 884.323,371.505 897.323,371.171 910.5,371.5C 910.832,420.67 910.499,469.67 909.5,518.5C 909.5,518.167 909.5,517.833 909.5,517.5C 909.5,469.167 909.5,420.833 909.5,372.5C 897.167,372.5 884.833,372.5 872.5,372.5C 872.167,372.5 871.833,372.5 871.5,372.5 Z"/></g>
<g><path style="opacity:0.839" fill="#636361" d="M 107.5,415.5 C 107.59,418.152 106.924,420.485 105.5,422.5C 105.41,419.848 106.076,417.515 107.5,415.5 Z"/></g>
<g><path style="opacity:0.451" fill="#5c5b57" d="M 694.5,409.5 C 696.031,414.25 696.698,419.25 696.5,424.5C 695.111,419.731 694.444,414.731 694.5,409.5 Z"/></g>
<g><path style="opacity:0.824" fill="#585756" d="M 770.5,427.5 C 765.384,428.806 760.051,429.473 754.5,429.5C 759.598,428.043 764.931,427.376 770.5,427.5 Z"/></g>
<g><path style="opacity:0.506" fill="#504f50" d="M 380.5,405.5 C 381.832,409.264 382.665,413.264 383,417.5C 383.5,450.832 383.667,484.165 383.5,517.5C 383.167,517.5 382.833,517.5 382.5,517.5C 382.667,484.498 382.5,451.498 382,418.5C 380.925,414.23 380.425,409.897 380.5,405.5 Z"/></g>
<g><path style="opacity:0.925" fill="#5a5953" d="M 798.5,449.5 C 788.167,448.167 777.833,448.167 767.5,449.5C 772.766,448.082 778.266,447.415 784,447.5C 789.09,447.344 793.923,448.01 798.5,449.5 Z"/></g>
<g><path style="opacity:0.867" fill="#5d5c5b" d="M 103.5,432.5 C 103.328,443.558 103.994,454.558 105.5,465.5C 104.252,462.058 103.419,458.392 103,454.5C 102.178,446.988 102.345,439.655 103.5,432.5 Z"/></g>
<g><path style="opacity:0.655" fill="#383839" d="M 284.5,435.5 C 283.563,463.028 283.229,490.361 283.5,517.5C 283.167,517.5 282.833,517.5 282.5,517.5C 282.333,491.831 282.5,466.165 283,440.5C 283.198,438.618 283.698,436.952 284.5,435.5 Z"/></g>
<g><path style="opacity:0.402" fill="#494848" d="M 244.5,373.5 C 245.499,420.997 245.832,468.664 245.5,516.5C 239.833,516.5 234.167,516.5 228.5,516.5C 233.64,515.512 238.974,515.179 244.5,515.5C 244.478,468.001 244.478,420.668 244.5,373.5 Z"/></g>
<g><path style="opacity:0.729" fill="#484747" d="M 197.5,484.5 C 192.461,486.305 187.128,487.305 181.5,487.5C 178.215,487.553 175.215,486.886 172.5,485.5C 180.85,486.426 189.184,486.093 197.5,484.5 Z"/></g>
<g><path style="opacity:0.196" fill="#70716d" d="M 344.5,427.5 C 345.498,457.329 345.831,487.329 345.5,517.5C 357.833,517.5 370.167,517.5 382.5,517.5C 382.833,517.5 383.167,517.5 383.5,517.5C 370.677,518.495 357.677,518.829 344.5,518.5C 344.5,488.167 344.5,457.833 344.5,427.5 Z"/></g>
<g><path style="opacity:0.439" fill="#666564" d="M 443.5,518.5 C 446.152,518.41 448.485,519.076 450.5,520.5C 447.848,520.59 445.515,519.924 443.5,518.5 Z"/></g>
<g><path style="opacity:0.637" fill="#52524f" d="M 163.5,520.5 C 176.165,521.802 188.832,521.802 201.5,520.5C 195.581,522.045 189.414,522.711 183,522.5C 176.262,522.686 169.762,522.019 163.5,520.5 Z"/></g>
<g><path style="opacity:0.304" fill="#747472" d="M 451.5,520.5 C 461.815,521.267 472.148,521.601 482.5,521.5C 478.681,522.166 474.681,522.499 470.5,522.5C 463.935,522.639 457.601,521.972 451.5,520.5 Z"/></g>
<g><path style="opacity:0.22" fill="#6a6765" d="M 228.5,516.5 C 229.14,526.558 228.473,536.225 226.5,545.5C 227.143,535.735 227.81,526.068 228.5,516.5 Z"/></g>
<g><path style="opacity:0.012" fill="#bebebd" d="M 282.5,517.5 C 282.833,517.5 283.167,517.5 283.5,517.5C 278.695,518.487 273.695,518.821 268.5,518.5C 268.5,527.167 268.5,535.833 268.5,544.5C 280.678,544.172 292.678,544.505 304.5,545.5C 292.167,545.5 279.833,545.5 267.5,545.5C 267.5,536.167 267.5,526.833 267.5,517.5C 272.5,517.5 277.5,517.5 282.5,517.5 Z"/></g>
<g><path style="opacity:0.3" fill="#717070" d="M 804.5,538.5 C 794.148,538.399 783.815,538.733 773.5,539.5C 779.601,538.028 785.935,537.361 792.5,537.5C 796.681,537.501 800.681,537.834 804.5,538.5 Z"/></g>
<g><path style="opacity:0.995" fill="#e38632" d="M 402.5,572.5 C 400.152,571.048 397.486,570.382 394.5,570.5C 389.197,570.678 384.197,571.678 379.5,573.5C 350.938,585.456 340.271,606.623 347.5,637C 354.948,656.739 369.281,667.239 390.5,668.5C 413.95,667.198 429.45,655.531 437,633.5C 438.631,624.181 438.965,614.848 438,605.5C 443.864,599.301 450.031,593.468 456.5,588C 460.422,588.472 464.255,588.638 468,588.5C 480.576,625.698 472.409,657.532 443.5,684C 410.859,707.386 377.526,708.386 343.5,687C 313.657,661.793 304.157,630.293 315,592.5C 329.813,557.905 356.147,539.571 394,537.5C 407.845,537.92 421.011,541.086 433.5,547C 434.022,547.561 434.355,548.228 434.5,549C 433.109,554.409 432.275,559.909 432,565.5C 427.533,568.965 423.367,572.798 419.5,577C 413.885,575.634 408.219,574.134 402.5,572.5 Z"/></g>
<g><path style="opacity:0.995" fill="#090909" d="M 646.5,609.5 C 646.499,618.515 646.166,627.515 645.5,636.5C 638.837,666.34 621.17,686.84 592.5,698C 557.049,707.916 526.549,699.749 501,673.5C 480.974,646.959 476.641,617.959 488,586.5C 505.892,550.326 535.058,534.159 575.5,538C 616.117,545.117 639.784,568.95 646.5,609.5 Z M 558.5,666.5 C 556.039,665.469 553.373,664.802 550.5,664.5C 530.184,656.723 519.85,641.89 519.5,620C 519.124,594.724 531.124,579.058 555.5,573C 588.688,570.519 607.022,585.852 610.5,619C 608.597,651.737 591.263,667.57 558.5,666.5 Z"/></g>
<g><path style="opacity:0.995" fill="#090909" d="M 804.5,538.5 C 807.902,538.342 811.236,538.676 814.5,539.5C 816.438,541.163 818.772,541.829 821.5,541.5C 832.358,544.096 842.358,548.596 851.5,555C 845.374,564.75 839.374,574.583 833.5,584.5C 815.262,570.35 795.262,566.85 773.5,574C 768.781,581.252 769.781,587.585 776.5,593C 783.623,596.207 790.956,598.707 798.5,600.5C 801.452,602.41 804.786,603.41 808.5,603.5C 825.112,606.384 838.945,614.051 850,626.5C 856.161,637.747 858.161,649.747 856,662.5C 852.596,680.574 842.096,692.407 824.5,698C 792.812,706.366 762.812,702.366 734.5,686C 731.167,683.333 727.833,680.667 724.5,678C 730.459,667.912 736.793,658.078 743.5,648.5C 763.031,667.633 786.031,673.799 812.5,667C 820.124,660.035 820.458,652.701 813.5,645C 799.35,638.794 784.684,634.128 769.5,631C 734.542,619.577 724.042,596.744 738,562.5C 746.457,549.684 758.291,542.018 773.5,539.5C 783.815,538.733 794.148,538.399 804.5,538.5 Z"/></g>
<g><path style="opacity:0.99" fill="#101010" d="M 482.5,544.5 C 481.698,553.612 480.198,562.612 478,571.5C 476.098,576.4 472.598,579.567 467.5,581C 461.009,581.749 454.676,581.416 448.5,580C 434.029,593.471 419.862,607.304 406,621.5C 403.06,624.768 402.893,628.268 405.5,632C 403.644,638.085 399.644,640.085 393.5,638C 392.069,637.535 390.903,636.701 390,635.5C 386,639.5 382,643.5 378,647.5C 375.447,645.284 373.28,642.784 371.5,640C 375.01,635.989 378.343,631.822 381.5,627.5C 377.841,624.673 374.674,621.34 372,617.5C 371.704,609.462 375.538,605.962 383.5,607C 386.797,609.295 389.797,611.962 392.5,615C 393.167,615.667 393.833,615.667 394.5,615C 410.043,600.158 425.209,584.991 440,569.5C 436.786,557.435 440.953,549.269 452.5,545C 456.414,543.717 460.414,542.884 464.5,542.5C 470.552,542.269 476.552,541.602 482.5,540.5C 482.5,541.833 482.5,543.167 482.5,544.5 Z"/></g>
<g><path style="opacity:0.557" fill="#73726a" d="M 814.5,539.5 C 817.067,539.721 819.401,540.388 821.5,541.5C 818.772,541.829 816.438,541.163 814.5,539.5 Z"/></g>
<g><path style="opacity:0.949" fill="#555454" d="M 482.5,544.5 C 482.5,543.167 482.5,541.833 482.5,540.5C 476.552,541.602 470.552,542.269 464.5,542.5C 470.603,540.864 476.936,539.864 483.5,539.5C 483.784,541.415 483.451,543.081 482.5,544.5 Z"/></g>
<g><path style="opacity:0.786" fill="#ebb079" d="M 402.5,572.5 C 394.814,571.583 387.148,571.916 379.5,573.5C 384.197,571.678 389.197,570.678 394.5,570.5C 397.486,570.382 400.152,571.048 402.5,572.5 Z"/></g>
<g><path style="opacity:0.229" fill="#757472" d="M 199.5,578.5 C 209.167,578.5 218.833,578.5 228.5,578.5C 228.5,604.167 228.5,629.833 228.5,655.5C 227.502,630.339 227.169,605.005 227.5,579.5C 217.985,579.827 208.652,579.494 199.5,578.5 Z"/></g>
<g><path style="opacity:0.294" fill="#585857" d="M 304.5,578.5 C 292.345,579.495 280.011,579.829 267.5,579.5C 267.5,603.167 267.5,626.833 267.5,650.5C 266.502,626.672 266.169,602.672 266.5,578.5C 279.167,578.5 291.833,578.5 304.5,578.5 Z"/></g>
<g><path style="opacity:0.459" fill="#6d6e6b" d="M 696.5,428.5 C 697.499,518.665 697.833,608.998 697.5,699.5C 684.5,699.5 671.5,699.5 658.5,699.5C 658.5,640.833 658.5,582.167 658.5,523.5C 659.499,581.664 659.832,639.998 659.5,698.5C 671.833,698.5 684.167,698.5 696.5,698.5C 696.5,608.5 696.5,518.5 696.5,428.5 Z"/></g>
<g><path style="opacity:0.518" fill="#757474" d="M 798.5,600.5 C 802.116,600.899 805.45,601.899 808.5,603.5C 804.786,603.41 801.452,602.41 798.5,600.5 Z"/></g>
<g><path style="opacity:0.477" fill="#616161" d="M 646.5,609.5 C 647.165,612.817 647.499,616.317 647.5,620C 647.642,625.743 646.975,631.243 645.5,636.5C 646.166,627.515 646.499,618.515 646.5,609.5 Z"/></g>
<g><path style="opacity:0.11" fill="#918e8e" d="M 550.5,664.5 C 553.373,664.802 556.039,665.469 558.5,666.5C 555.447,666.889 552.78,666.223 550.5,664.5 Z"/></g>
<g><path style="opacity:0.211" fill="#6c6c69" d="M 305.5,666.5 C 305.56,665.957 305.893,665.624 306.5,665.5C 307.499,676.146 307.832,686.813 307.5,697.5C 306.5,697.5 305.5,697.5 304.5,697.5C 305.782,692.412 306.449,687.079 306.5,681.5C 306.499,676.322 306.166,671.322 305.5,666.5 Z"/></g>
</svg>
