<?xml version="1.0" encoding="UTF-8"?>
<!DOCTYPE svg PUBLIC "-//W3C//DTD SVG 1.1//EN" "http://www.w3.org/Graphics/SVG/1.1/DTD/svg11.dtd">
<svg xmlns="http://www.w3.org/2000/svg" version="1.1" width="819px" height="610px" style="shape-rendering:geometricPrecision; text-rendering:geometricPrecision; image-rendering:optimizeQuality; fill-rule:evenodd; clip-rule:evenodd" xmlns:xlink="http://www.w3.org/1999/xlink">
<g><path style="opacity:0.98" fill="#0d0b09" d="M 652.5,29.5 C 654.371,29.8588 655.871,30.8588 657,32.5C 672.65,49.6505 688.483,66.6505 704.5,83.5C 695.048,94.4541 685.048,104.954 674.5,115C 673.072,115.579 671.738,115.412 670.5,114.5C 665.731,113.111 660.731,112.444 655.5,112.5C 645.741,111.572 636.075,110.405 626.5,109C 609.994,124.34 593.994,140.173 578.5,156.5C 569.517,166.427 560.517,176.427 551.5,186.5C 561.881,187.863 571.381,185.53 580,179.5C 575.853,192.019 567.02,198.353 553.5,198.5C 549.611,198.471 545.944,197.971 542.5,197C 541.833,197.667 541.167,198.333 540.5,199C 548.369,213.758 545.036,225.258 530.5,233.5C 530.167,233.333 529.833,233.167 529.5,233C 530.582,231.67 531.249,230.17 531.5,228.5C 531.263,227.209 531.596,226.209 532.5,225.5C 534.744,220.829 535.577,215.829 535,210.5C 529.913,217.019 525.079,223.686 520.5,230.5C 503.037,246.127 485.704,261.96 468.5,278C 456.599,288.404 444.266,298.237 431.5,307.5C 431.167,307.333 430.833,307.167 430.5,307C 449.352,284.653 469.018,263.153 489.5,242.5C 491.5,241.167 493.167,239.5 494.5,237.5C 495.833,236.833 496.833,235.833 497.5,234.5C 507.45,223.546 517.45,212.546 527.5,201.5C 516.51,200.827 506.51,203.827 497.5,210.5C 497.167,210.167 496.833,209.833 496.5,209.5C 504.823,192.326 517.823,186.826 535.5,193C 536.022,192.439 536.355,191.772 536.5,191C 528.812,176.602 531.812,165.102 545.5,156.5C 545.833,156.667 546.167,156.833 546.5,157C 544.264,160.876 542.93,165.042 542.5,169.5C 541.366,171.966 541.199,174.633 542,177.5C 542.717,176.956 543.217,176.289 543.5,175.5C 550.094,166.899 557.094,158.565 564.5,150.5C 568.909,147.633 572.909,144.299 576.5,140.5C 592.364,128.481 607.53,115.481 622,101.5C 623.057,90.1553 624.223,78.8219 625.5,67.5C 625.594,64.4992 624.261,62.4992 621.5,61.5C 631.855,50.8127 642.188,40.146 652.5,29.5 Z M 653.5,44.5 C 666.3,57.4678 678.966,70.6344 691.5,84C 684.598,91.2386 677.431,98.0719 670,104.5C 657.808,102.998 645.641,101.331 633.5,99.5C 635.311,86.8893 636.811,74.2227 638,61.5C 643.004,55.6635 648.171,49.9969 653.5,44.5 Z M 532.5,225.5 C 531.596,226.209 531.263,227.209 531.5,228.5C 529.365,229.966 527.365,229.8 525.5,228C 527.876,224.081 530.376,220.248 533,216.5C 533.044,219.475 532.877,222.475 532.5,225.5 Z"/></g>
<g><path style="opacity:0.098" fill="#d1d1d0" d="M 652.5,40.5 C 655.394,41.8823 657.894,43.8823 660,46.5C 670.95,59.2851 682.45,71.6184 694.5,83.5C 687.165,91.6681 679.332,99.3348 671,106.5C 657.798,104.649 644.632,102.649 631.5,100.5C 631.167,99 630.833,97.5 630.5,96C 631.88,83.4809 633.38,70.9809 635,58.5C 641.036,52.6314 646.87,46.6314 652.5,40.5 Z M 653.5,44.5 C 648.171,49.9969 643.004,55.6635 638,61.5C 636.811,74.2227 635.311,86.8893 633.5,99.5C 645.641,101.331 657.808,102.998 670,104.5C 677.431,98.0719 684.598,91.2386 691.5,84C 678.966,70.6344 666.3,57.4678 653.5,44.5 Z"/></g>
<g><path style="opacity:0.993" fill="#060504" d="M 550.5,91.5 C 568.194,92.8976 584.361,98.5642 599,108.5C 594.853,114.827 589.686,120.494 583.5,125.5C 540.917,104.27 503.417,110.937 471,145.5C 447.592,180.278 447.758,214.944 471.5,249.5C 466.854,254.812 461.854,259.812 456.5,264.5C 446.523,253.558 439.356,240.892 435,226.5C 432.187,214.662 430.687,202.662 430.5,190.5C 430.5,188.833 430.5,187.167 430.5,185.5C 434.705,158.097 447.038,134.93 467.5,116C 473.519,111.326 479.853,107.159 486.5,103.5C 488.819,103.008 490.819,102.008 492.5,100.5C 500.585,96.0278 509.252,93.3611 518.5,92.5C 529.148,91.723 539.815,91.3897 550.5,91.5 Z"/></g>
<g><path style="opacity:0.467" fill="#676664" d="M 490.5,100.5 C 491.167,100.5 491.833,100.5 492.5,100.5C 490.819,102.008 488.819,103.008 486.5,103.5C 486.5,103.167 486.5,102.833 486.5,102.5C 487.514,101.326 488.847,100.66 490.5,100.5 Z"/></g>
<g><path style="opacity:0.034" fill="#d8d7d5" d="M 652.5,29.5 C 642.188,40.146 631.855,50.8127 621.5,61.5C 624.261,62.4992 625.594,64.4992 625.5,67.5C 624.223,78.8219 623.057,90.1553 622,101.5C 607.53,115.481 592.364,128.481 576.5,140.5C 572.909,144.299 568.909,147.633 564.5,150.5C 563.972,149.153 563.805,147.819 564,146.5C 571.073,139.931 577.573,132.931 583.5,125.5C 589.686,120.494 594.853,114.827 599,108.5C 584.361,98.5642 568.194,92.8976 550.5,91.5C 541.343,90.3424 532.009,90.1757 522.5,91C 520.942,91.21 519.609,91.71 518.5,92.5C 509.252,93.3611 500.585,96.0278 492.5,100.5C 491.833,100.5 491.167,100.5 490.5,100.5C 505.163,91.8342 521.163,87.8342 538.5,88.5C 562.027,88.6506 583.194,94.984 602,107.5C 601.855,110.514 601.355,113.514 600.5,116.5C 603.93,116.214 606.264,114.38 607.5,111C 611.916,108.588 615.749,105.422 619,101.5C 622.014,89.671 623.348,77.671 623,65.5C 619.925,64.5309 618.925,62.5309 620,59.5C 630.149,48.5081 640.982,38.5081 652.5,29.5 Z M 576.5,140.5 C 574.167,141.833 571.833,143.167 569.5,144.5C 577.872,135.127 586.872,126.46 596.5,118.5C 597.5,119 598.5,119.5 599.5,120C 591.341,126.328 583.675,133.161 576.5,140.5 Z"/></g>
<g><path style="opacity:0.645" fill="#3c3b3b" d="M 550.5,91.5 C 539.815,91.3897 529.148,91.723 518.5,92.5C 519.609,91.71 520.942,91.21 522.5,91C 532.009,90.1757 541.343,90.3424 550.5,91.5 Z"/></g>
<g><path style="opacity:1" fill="#f4ba07" d="M 583.5,125.5 C 577.573,132.931 571.073,139.931 564,146.5C 563.805,147.819 563.972,149.153 564.5,150.5C 557.094,158.565 550.094,166.899 543.5,175.5C 542.539,173.735 542.205,171.735 542.5,169.5C 542.93,165.042 544.264,160.876 546.5,157C 546.167,156.833 545.833,156.667 545.5,156.5C 531.812,165.102 528.812,176.602 536.5,191C 536.355,191.772 536.022,192.439 535.5,193C 517.823,186.826 504.823,192.326 496.5,209.5C 496.833,209.833 497.167,210.167 497.5,210.5C 506.51,203.827 516.51,200.827 527.5,201.5C 517.45,212.546 507.45,223.546 497.5,234.5C 496.067,233.167 494.733,231.667 493.5,230C 492.833,229.333 492.167,229.333 491.5,230C 484.965,236.703 478.298,243.203 471.5,249.5C 447.758,214.944 447.592,180.278 471,145.5C 503.417,110.937 540.917,104.27 583.5,125.5 Z"/></g>
<g><path style="opacity:0.022" fill="#dbdbd9" d="M 652.5,29.5 C 653.601,28.4017 654.934,28.235 656.5,29C 673.699,46.5312 690.533,64.3646 707,82.5C 707.52,84.2889 707.187,85.9556 706,87.5C 696.14,97.3604 686.306,107.194 676.5,117C 660.121,115.707 643.787,114.041 627.5,112C 620,119.5 613.167,126.333 607,132.5C 598.341,139.493 590.341,147.16 583,155.5C 582.604,157.829 583.438,159.495 585.5,160.5C 585.189,161.478 584.522,162.145 583.5,162.5C 582.291,160.059 580.624,158.059 578.5,156.5C 593.994,140.173 609.994,124.34 626.5,109C 636.075,110.405 645.741,111.572 655.5,112.5C 660.269,113.889 665.269,114.556 670.5,114.5C 671.738,115.412 673.072,115.579 674.5,115C 685.048,104.954 695.048,94.4541 704.5,83.5C 688.483,66.6505 672.65,49.6505 657,32.5C 655.871,30.8588 654.371,29.8588 652.5,29.5 Z"/></g>
<g><path style="opacity:0.898" fill="#464646" d="M 655.5,112.5 C 660.731,112.444 665.731,113.111 670.5,114.5C 665.269,114.556 660.269,113.889 655.5,112.5 Z"/></g>
<g><path style="opacity:0.996" fill="#060504" d="M 491.5,267.5 C 514.892,280.288 539.559,283.121 565.5,276C 602.351,261.781 621.351,234.781 622.5,195C 621.756,175.919 615.423,159.086 603.5,144.5C 608.497,138.67 613.997,133.337 620,128.5C 639.154,151.299 647.487,177.632 645,207.5C 639.363,250.652 616.53,280.486 576.5,297C 539.914,309.782 505.914,305.115 474.5,283C 479.82,277.359 485.487,272.193 491.5,267.5 Z"/></g>
<g><path style="opacity:0.012" fill="#d7d6d5" d="M 486.5,102.5 C 486.5,102.833 486.5,103.167 486.5,103.5C 479.853,107.159 473.519,111.326 467.5,116C 447.038,134.93 434.705,158.097 430.5,185.5C 431.647,163.202 439.48,143.535 454,126.5C 459.468,122.033 464.635,117.2 469.5,112C 474.619,107.776 480.285,104.609 486.5,102.5 Z"/></g>
<g><path style="opacity:0.122" fill="#ebdfc4" d="M 601.5,144.5 C 596.5,150.167 591.167,155.5 585.5,160.5C 589.833,154.167 595.167,148.833 601.5,144.5 Z"/></g>
<g><path style="opacity:0.557" fill="#805a06" d="M 542.5,169.5 C 542.205,171.735 542.539,173.735 543.5,175.5C 543.217,176.289 542.717,176.956 542,177.5C 541.199,174.633 541.366,171.966 542.5,169.5 Z"/></g>
<g><path style="opacity:0.128" fill="#d8d8d7" d="M 186.5,88.5 C 201.679,87.6716 216.679,88.8383 231.5,92C 241.606,96.2193 251.273,101.219 260.5,107C 263.103,109.094 265.103,111.594 266.5,114.5C 262.856,119.312 259.022,123.979 255,128.5C 253.235,130.774 251.068,132.441 248.5,133.5C 243.174,131.347 238.507,128.18 234.5,124C 213.919,113.184 193.253,112.85 172.5,123C 154.509,147.011 159.509,164.678 187.5,176C 200.437,179.534 213.437,182.867 226.5,186C 247.547,191.718 262.381,204.551 271,224.5C 271.667,236.5 271.667,248.5 271,260.5C 270,261.5 269,262.5 268,263.5C 257.85,288.341 239.35,302.174 212.5,305C 179.243,308.468 150.076,299.301 125,277.5C 123.924,275.933 123.091,274.266 122.5,272.5C 126.825,267.336 130.992,262.002 135,256.5C 136.73,255.26 138.563,254.26 140.5,253.5C 146.738,258.561 153.405,263.061 160.5,267C 169.103,271.313 178.103,274.647 187.5,277C 197.228,277.891 206.894,277.557 216.5,276C 233.213,271.294 241.546,260.294 241.5,243C 241.85,232.327 237.517,224.327 228.5,219C 224.419,217.529 220.419,215.862 216.5,214C 197.012,209.087 178.012,202.754 159.5,195C 147.424,187.688 139.591,177.188 136,163.5C 129.367,122.353 146.201,97.3527 186.5,88.5 Z"/></g>
<g><path style="opacity:0.995" fill="#060606" d="M 182.5,278.5 C 187.255,279.942 192.255,280.608 197.5,280.5C 200.686,280.498 203.686,280.165 206.5,279.5C 235.996,276.162 248.163,259.828 243,230.5C 239.543,223.676 234.377,218.509 227.5,215C 209.428,208.564 191.095,202.897 172.5,198C 140.649,183.498 129.816,159.331 140,125.5C 148.971,106.539 163.804,95.0391 184.5,91C 212.251,86.9447 237.251,93.278 259.5,110C 260.687,111.019 261.687,112.186 262.5,113.5C 257.843,119.489 252.843,125.156 247.5,130.5C 229.007,114.376 207.674,108.876 183.5,114C 159.933,123.691 153.433,140.191 164,163.5C 170.983,171.079 179.483,176.245 189.5,179C 204.127,181.907 218.46,185.907 232.5,191C 261.192,203.213 272.359,224.713 266,255.5C 259.968,278.533 245.468,293.366 222.5,300C 185.807,307.333 153.64,298.5 126,273.5C 125.333,272.5 125.333,271.5 126,270.5C 130.733,265.767 135.4,261.1 140,256.5C 152.266,267.384 166.433,274.717 182.5,278.5 Z"/></g>
<g><path style="opacity:0.998" fill="#f4bb07" d="M 601.5,144.5 C 602.167,144.5 602.833,144.5 603.5,144.5C 615.423,159.086 621.756,175.919 622.5,195C 621.351,234.781 602.351,261.781 565.5,276C 539.559,283.121 514.892,280.288 491.5,267.5C 492.167,266.5 492.833,265.5 493.5,264.5C 500.779,257.887 507.779,250.887 514.5,243.5C 517.82,239.856 519.82,235.522 520.5,230.5C 525.079,223.686 529.913,217.019 535,210.5C 535.577,215.829 534.744,220.829 532.5,225.5C 532.877,222.475 533.044,219.475 533,216.5C 530.376,220.248 527.876,224.081 525.5,228C 527.365,229.8 529.365,229.966 531.5,228.5C 531.249,230.17 530.582,231.67 529.5,233C 529.833,233.167 530.167,233.333 530.5,233.5C 545.036,225.258 548.369,213.758 540.5,199C 541.167,198.333 541.833,197.667 542.5,197C 545.944,197.971 549.611,198.471 553.5,198.5C 567.02,198.353 575.853,192.019 580,179.5C 571.381,185.53 561.881,187.863 551.5,186.5C 560.517,176.427 569.517,166.427 578.5,156.5C 580.624,158.059 582.291,160.059 583.5,162.5C 584.522,162.145 585.189,161.478 585.5,160.5C 591.167,155.5 596.5,150.167 601.5,144.5 Z M 532.5,225.5 C 531.596,226.209 531.263,227.209 531.5,228.5C 529.365,229.966 527.365,229.8 525.5,228C 527.876,224.081 530.376,220.248 533,216.5C 533.044,219.475 532.877,222.475 532.5,225.5 Z"/></g>
<g><path style="opacity:0.063" fill="#d6d5d5" d="M 292.5,91.5 C 334.501,91.3333 376.501,91.5 418.5,92C 419.126,92.7504 419.626,93.5838 420,94.5C 421.506,101.433 421.839,108.433 421,115.5C 420.535,116.931 419.701,118.097 418.5,119C 385.833,119.333 353.167,119.667 320.5,120C 319.507,140.758 319.173,161.591 319.5,182.5C 350.495,183.162 381.495,183.662 412.5,184C 414.41,184.408 415.41,185.575 415.5,187.5C 414.9,194.829 414.233,202.162 413.5,209.5C 412.707,209.931 411.873,210.265 411,210.5C 380.528,209.703 350.028,209.703 319.5,210.5C 320.351,231.841 320.684,253.174 320.5,274.5C 353.806,276.134 387.139,276.967 420.5,277C 421.516,277.519 422.182,278.353 422.5,279.5C 421.48,284.872 421.48,290.372 422.5,296C 422.726,298.671 422.059,301.004 420.5,303C 377.459,303.828 334.459,303.661 291.5,302.5C 290.826,271.797 290.159,241.13 289.5,210.5C 290.833,172.167 290.833,133.833 289.5,95.5C 290.172,93.8405 291.172,92.5072 292.5,91.5 Z"/></g>
<g><path style="opacity:0.995" fill="#050404" d="M 292.5,93.5 C 334.167,93.5 375.833,93.5 417.5,93.5C 417.5,101.167 417.5,108.833 417.5,116.5C 383.833,116.5 350.167,116.5 316.5,116.5C 316.5,139.167 316.5,161.833 316.5,184.5C 347.833,184.5 379.167,184.5 410.5,184.5C 410.5,192.167 410.5,199.833 410.5,207.5C 379.167,207.5 347.833,207.5 316.5,207.5C 316.5,230.833 316.5,254.167 316.5,277.5C 350.5,277.5 384.5,277.5 418.5,277.5C 418.5,285.167 418.5,292.833 418.5,300.5C 376.5,300.5 334.5,300.5 292.5,300.5C 292.5,231.5 292.5,162.5 292.5,93.5 Z"/></g>
<g><path style="opacity:0.169" fill="#ecdab0" d="M 513.5,243.5 C 513.833,243.5 514.167,243.5 514.5,243.5C 507.779,250.887 500.779,257.887 493.5,264.5C 493.5,264.167 493.5,263.833 493.5,263.5C 499.833,256.5 506.5,249.833 513.5,243.5 Z"/></g>
<g><path style="opacity:0.486" fill="#919091" d="M 182.5,278.5 C 190.483,279.166 198.483,279.499 206.5,279.5C 203.686,280.165 200.686,280.498 197.5,280.5C 192.255,280.608 187.255,279.942 182.5,278.5 Z"/></g>
<g><path style="opacity:0.112" fill="#d6d6d5" d="M 493.5,263.5 C 493.5,263.833 493.5,264.167 493.5,264.5C 492.833,265.5 492.167,266.5 491.5,267.5C 485.487,272.193 479.82,277.359 474.5,283C 505.914,305.115 539.914,309.782 576.5,297C 616.53,280.486 639.363,250.652 645,207.5C 647.487,177.632 639.154,151.299 620,128.5C 613.997,133.337 608.497,138.67 603.5,144.5C 602.833,144.5 602.167,144.5 601.5,144.5C 605.157,140.342 608.991,136.342 613,132.5C 613.492,131.451 613.326,130.451 612.5,129.5C 615.163,128.808 617.663,127.808 620,126.5C 621.225,126.862 622.391,127.362 623.5,128C 649.17,163.026 654.503,201.026 639.5,242C 639.833,243 640.167,244 640.5,245C 638.729,247.487 636.562,249.654 634,251.5C 621.459,274.368 602.959,290.534 578.5,300C 551.082,307.584 523.748,307.25 496.5,299C 487.798,294.99 479.798,289.99 472.5,284C 472.862,282.775 473.362,281.609 474,280.5C 480.417,274.573 486.917,268.906 493.5,263.5 Z"/></g>
<g><path style="opacity:0.107" fill="#e3e2e2" d="M 101.5,522.5 C 109.833,522.5 118.167,522.5 126.5,522.5C 126.5,459.5 126.5,396.5 126.5,333.5C 149.833,333.5 173.167,333.5 196.5,333.5C 196.5,325.833 196.5,318.167 196.5,310.5C 142.167,310.5 87.8333,310.5 33.5,310.5C 33.1746,318.352 33.508,326.018 34.5,333.5C 56.8333,333.5 79.1667,333.5 101.5,333.5C 101.5,380.167 101.5,426.833 101.5,473.5C 100.686,471.369 100.186,469.036 100,466.5C 99.5,423.168 99.3333,379.835 99.5,336.5C 77.4975,336.667 55.4975,336.5 33.5,336C 32.0203,334.701 31.3536,333.034 31.5,331C 32.4602,323.767 32.7936,316.6 32.5,309.5C 86.0101,308.818 139.51,308.152 193,307.5C 196.431,307.244 198.931,308.577 200.5,311.5C 199.848,319.697 199.181,327.864 198.5,336C 175.594,336.172 152.761,336.672 130,337.5C 129.667,399.167 129.333,460.833 129,522.5C 128.5,523 128,523.5 127.5,524C 123.167,524.167 118.833,524.333 114.5,524.5C 109.778,524.492 105.445,523.825 101.5,522.5 Z"/></g>
<g><path style="opacity:0.771" fill="#2b2a2b" d="M 126.5,333.5 C 149.327,332.502 172.327,332.169 195.5,332.5C 195.5,325.5 195.5,318.5 195.5,311.5C 141.833,311.5 88.1667,311.5 34.5,311.5C 34.5,318.833 34.5,326.167 34.5,333.5C 33.508,326.018 33.1746,318.352 33.5,310.5C 87.8333,310.5 142.167,310.5 196.5,310.5C 196.5,318.167 196.5,325.833 196.5,333.5C 173.167,333.5 149.833,333.5 126.5,333.5 Z"/></g>
<g><path style="opacity:0.992" fill="#010101" d="M 126.5,333.5 C 125.501,395.998 125.168,458.664 125.5,521.5C 117.833,521.5 110.167,521.5 102.5,521.5C 102.832,458.664 102.499,395.998 101.5,333.5C 79.1667,333.5 56.8333,333.5 34.5,333.5C 34.5,326.167 34.5,318.833 34.5,311.5C 88.1667,311.5 141.833,311.5 195.5,311.5C 195.5,318.5 195.5,325.5 195.5,332.5C 172.327,332.169 149.327,332.502 126.5,333.5 Z"/></g>
<g><path style="opacity:0.053" fill="#d7d7d6" d="M 430.5,190.5 C 430.687,202.662 432.187,214.662 435,226.5C 439.356,240.892 446.523,253.558 456.5,264.5C 461.854,259.812 466.854,254.812 471.5,249.5C 478.298,243.203 484.965,236.703 491.5,230C 492.167,229.333 492.833,229.333 493.5,230C 494.733,231.667 496.067,233.167 497.5,234.5C 496.833,235.833 495.833,236.833 494.5,237.5C 495.599,235.291 495.099,233.291 493,231.5C 483.143,240.691 473.976,250.524 465.5,261C 465.63,262.059 466.13,262.892 467,263.5C 474.115,255.878 481.615,248.878 489.5,242.5C 469.018,263.153 449.352,284.653 430.5,307C 430.833,307.167 431.167,307.333 431.5,307.5C 444.266,298.237 456.599,288.404 468.5,278C 485.704,261.96 503.037,246.127 520.5,230.5C 519.82,235.522 517.82,239.856 514.5,243.5C 514.167,243.5 513.833,243.5 513.5,243.5C 513.511,241.983 514.177,240.816 515.5,240C 515.167,239.833 514.833,239.667 514.5,239.5C 499.969,251.963 485.969,265.129 472.5,279C 459.602,290.401 446.268,301.235 432.5,311.5C 473.578,321.685 501.578,345.852 516.5,384C 525.043,415.98 521.543,446.48 506,475.5C 490.791,497.365 470.624,512.865 445.5,522C 423.1,528.135 400.766,527.969 378.5,521.5C 377.707,521.931 376.873,522.265 376,522.5C 365.382,516.688 355.048,510.355 345,503.5C 344.626,504.416 344.126,505.25 343.5,506C 339.885,506.732 336.552,508.065 333.5,510C 332.528,514.67 329.862,516.337 325.5,515C 320.554,516.806 315.888,519.139 311.5,522C 287.843,526.605 264.176,526.605 240.5,522C 234.116,516.959 227.116,513.959 219.5,513C 220.727,511.413 220.394,510.079 218.5,509C 217.069,508.535 215.903,507.701 215,506.5C 213.612,507.554 212.112,507.72 210.5,507C 208.555,501.891 204.888,498.725 199.5,497.5C 199.709,496.914 200.043,496.414 200.5,496C 165.349,458.423 158.182,415.923 179,368.5C 185.884,357.285 193.884,346.952 203,337.5C 223.93,319.85 248.263,310.85 276,310.5C 288.977,311.302 301.811,313.135 314.5,316C 320.52,318.703 326.52,321.369 332.5,324C 336.492,327.331 340.825,330.164 345.5,332.5C 371.005,314.627 399.339,307.46 430.5,311C 426.707,310.261 425.874,308.428 428,305.5C 440.249,291.657 452.749,278.157 465.5,265C 464.584,264.626 463.75,264.126 463,263.5C 460.734,266.91 457.901,267.744 454.5,266C 451.333,262.167 448.167,258.333 445,254.5C 443.279,250.057 441.279,245.724 439,241.5C 437.859,239.391 436.359,237.558 434.5,236C 434.957,235.586 435.291,235.086 435.5,234.5C 430.776,220.02 429.11,205.354 430.5,190.5 Z M 494.5,237.5 C 491.833,238.167 490.167,239.833 489.5,242.5C 481.615,248.878 474.115,255.878 467,263.5C 466.13,262.892 465.63,262.059 465.5,261C 473.976,250.524 483.143,240.691 493,231.5C 495.099,233.291 495.599,235.291 494.5,237.5 Z"/></g>
<g><path style="opacity:0.998" fill="#050403" d="M 259.5,313.5 C 285.83,310.949 310.496,316.116 333.5,329C 337.167,331.833 340.833,334.667 344.5,337.5C 372.147,315.049 403.48,307.882 438.5,316C 482.717,329.89 508.883,359.723 517,405.5C 520.314,451.039 502.814,485.872 464.5,510C 437.803,524.046 409.803,527.38 380.5,520C 367.422,515.211 355.255,508.711 344,500.5C 308.621,525.423 270.788,529.923 230.5,514C 186.687,489.885 166.853,452.718 171,402.5C 181.341,353.659 210.841,323.993 259.5,313.5 Z"/></g>
<g><path style="opacity:0.075" fill="#cac7c0" d="M 494.5,237.5 C 493.167,239.5 491.5,241.167 489.5,242.5C 490.167,239.833 491.833,238.167 494.5,237.5 Z"/></g>
<g><path style="opacity:0.108" fill="#d7d7d6" d="M 708.5,307.5 C 727.255,306.459 745.255,309.626 762.5,317C 769.11,320.889 775.277,325.389 781,330.5C 781.635,332.635 781.301,334.635 780,336.5C 775.6,342.064 770.767,347.064 765.5,351.5C 760.245,349.203 755.245,346.37 750.5,343C 734.82,335.218 718.487,333.218 701.5,337C 687.165,340.336 679.165,349.336 677.5,364C 677.57,373.135 680.903,380.801 687.5,387C 693.995,390.297 700.662,393.297 707.5,396C 721.617,399.595 735.617,403.595 749.5,408C 774.074,417.58 786.407,435.58 786.5,462C 786.084,470.523 784.75,478.856 782.5,487C 782.833,487.333 783.167,487.667 783.5,488C 780.23,491.996 777.23,496.163 774.5,500.5C 784.375,500.872 789.209,505.872 789,515.5C 785.427,524.582 779.261,526.748 770.5,522C 767.049,517.977 765.882,513.477 767,508.5C 752.442,520.524 735.609,526.191 716.5,525.5C 699.591,526.019 683.591,522.519 668.5,515C 663.094,511.268 657.427,507.935 651.5,505C 647.352,501.096 643.019,497.429 638.5,494C 644.369,487.133 650.536,480.633 657,474.5C 662.876,479.372 669.042,483.872 675.5,488C 685.8,492.545 696.466,495.878 707.5,498C 726.419,501.307 742.085,495.807 754.5,481.5C 762.797,466.053 760.797,452.22 748.5,440C 744.673,438.254 741.007,436.254 737.5,434C 723.351,429.396 709.018,425.396 694.5,422C 678.157,416.76 664.991,407.26 655,393.5C 646.324,371.979 647.991,351.313 660,331.5C 673.096,317.202 689.263,309.202 708.5,307.5 Z"/></g>
<g><path style="opacity:0.994" fill="#060505" d="M 726.5,310.5 C 746.144,311.996 763.478,318.996 778.5,331.5C 774.531,337.964 769.698,343.63 764,348.5C 749.226,337.464 732.56,331.797 714,331.5C 696.426,331.278 683.76,338.945 676,354.5C 671.553,373.773 678.386,387.273 696.5,395C 712.418,399.918 728.418,404.584 744.5,409C 774.884,419.924 787.718,441.424 783,473.5C 777.921,497.248 763.754,512.748 740.5,520C 708.864,527.673 679.864,522.007 653.5,503C 649.353,500.02 645.686,496.52 642.5,492.5C 647.518,487.316 652.351,481.983 657,476.5C 680.935,499.29 708.768,505.79 740.5,496C 757.545,486.425 764.045,471.925 760,452.5C 758.384,447.221 755.551,442.721 751.5,439C 747.127,435.814 742.46,433.147 737.5,431C 725.293,427.198 712.96,423.865 700.5,421C 655.757,407.76 642.257,379.594 660,336.5C 669.273,322.775 682.106,314.441 698.5,311.5C 707.815,310.768 717.148,310.434 726.5,310.5 Z"/></g>
<g><path style="opacity:0.714" fill="#545354" d="M 726.5,310.5 C 717.148,310.434 707.815,310.768 698.5,311.5C 703.925,310.016 709.591,309.349 715.5,309.5C 719.349,309.501 723.016,309.835 726.5,310.5 Z"/></g>
<g><path style="opacity:1" fill="#f6bc07" d="M 285.5,337.5 C 302.05,338.454 316.383,344.454 328.5,355.5C 309.714,380.497 303.214,408.497 309,439.5C 311.142,448.424 313.975,457.091 317.5,465.5C 316.609,466.261 315.942,467.261 315.5,468.5C 316.747,470.042 316.747,471.542 315.5,473C 319.914,473.748 321.414,476.248 320,480.5C 317.186,474.282 316.352,474.782 317.5,482C 317.624,484.59 316.958,486.923 315.5,489C 313.479,487.528 310.479,487.195 306.5,488C 306.167,489 305.833,490 305.5,491C 302.665,491.784 299.999,492.117 297.5,492C 298.28,493.073 298.113,494.24 297,495.5C 295.938,494.903 294.772,494.57 293.5,494.5C 284.494,496.381 275.661,497.047 267,496.5C 264.657,495.873 262.49,494.873 260.5,493.5C 257.662,492.912 254.996,493.579 252.5,495.5C 250.08,495.018 248.247,493.685 247,491.5C 245.434,492.061 244.101,491.394 243,489.5C 242.259,490.641 241.425,490.641 240.5,489.5C 239.667,487.5 238.833,485.5 238,483.5C 237.667,483.833 237.333,484.167 237,484.5C 236.692,483.692 236.192,483.025 235.5,482.5C 236.016,483.758 235.35,484.758 233.5,485.5C 231.167,484 228.833,482.5 226.5,481C 227.428,480.612 228.095,479.945 228.5,479C 226.668,476.142 225.002,473.309 223.5,470.5C 224.641,469.575 224.641,468.741 223.5,468C 225.085,467.915 226.418,467.749 227.5,467.5C 225.816,466.146 225.316,464.479 226,462.5C 227.807,463.691 229.141,465.691 230,468.5C 231.067,467.809 232.234,467.309 233.5,467C 231.993,466.163 231.493,464.996 232,463.5C 233.011,464.337 234.178,464.67 235.5,464.5C 235.491,462.692 235.991,461.025 237,459.5C 238.008,464.541 238.508,464.208 238.5,458.5C 237.448,458.649 236.448,458.483 235.5,458C 237.856,456.047 239.356,453.547 240,450.5C 240.166,454.511 241,455.011 242.5,452C 241.167,451 241.167,450 242.5,449C 240.606,447.921 240.273,446.587 241.5,445C 240.584,444.626 239.75,444.126 239,443.5C 238.808,441.423 238.308,439.423 237.5,437.5C 237.522,438.995 237.189,440.662 236.5,442.5C 236.563,441.34 236.23,440.006 235.5,438.5C 234.349,437.269 233.183,437.269 232,438.5C 231.689,437.258 232.189,436.258 233.5,435.5C 230.794,432.296 227.961,429.296 225,426.5C 224.667,427.167 224.333,427.833 224,428.5C 223.219,423.446 223.386,418.446 224.5,413.5C 223.846,411.885 223.346,410.218 223,408.5C 222.751,409.624 222.251,410.624 221.5,411.5C 221.167,411.167 220.833,410.833 220.5,410.5C 221.767,408.629 221.767,406.796 220.5,405C 222.158,404.275 222.658,403.108 222,401.5C 221.396,403.686 220.23,403.852 218.5,402C 221.167,401.333 221.167,400.667 218.5,400C 219.603,398.32 219.27,396.82 217.5,395.5C 220.093,389.621 222.759,383.787 225.5,378C 224.427,376.75 224.427,375.416 225.5,374C 229.06,370.225 232.06,366.058 234.5,361.5C 236.937,360.197 239.104,358.53 241,356.5C 242.06,356.254 243.227,356.254 244.5,356.5C 245.474,354.257 245.808,351.924 245.5,349.5C 242.989,349.838 240.655,349.838 238.5,349.5C 240.501,348.281 242.334,346.947 244,345.5C 244.772,345.645 245.439,345.978 246,346.5C 248.629,346.072 250.962,345.072 253,343.5C 259.317,343.557 265.817,343.724 272.5,344C 273.623,342.956 274.956,342.29 276.5,342C 274.913,341.138 273.246,340.471 271.5,340C 275.5,339.667 279.5,339.333 283.5,339C 282.833,338.667 282.167,338.333 281.5,338C 282.793,337.51 284.127,337.343 285.5,337.5 Z"/></g>
<g><path style="opacity:1" fill="#f4b907" d="M 285.5,337.5 C 284.127,337.343 282.793,337.51 281.5,338C 282.167,338.333 282.833,338.667 283.5,339C 279.5,339.333 275.5,339.667 271.5,340C 273.246,340.471 274.913,341.138 276.5,342C 274.956,342.29 273.623,342.956 272.5,344C 265.817,343.724 259.317,343.557 253,343.5C 250.962,345.072 248.629,346.072 246,346.5C 245.439,345.978 244.772,345.645 244,345.5C 242.334,346.947 240.501,348.281 238.5,349.5C 240.655,349.838 242.989,349.838 245.5,349.5C 245.808,351.924 245.474,354.257 244.5,356.5C 243.227,356.254 242.06,356.254 241,356.5C 239.104,358.53 236.937,360.197 234.5,361.5C 232.06,366.058 229.06,370.225 225.5,374C 224.427,375.416 224.427,376.75 225.5,378C 222.759,383.787 220.093,389.621 217.5,395.5C 219.27,396.82 219.603,398.32 218.5,400C 221.167,400.667 221.167,401.333 218.5,402C 220.23,403.852 221.396,403.686 222,401.5C 222.658,403.108 222.158,404.275 220.5,405C 221.767,406.796 221.767,408.629 220.5,410.5C 220.833,410.833 221.167,411.167 221.5,411.5C 222.251,410.624 222.751,409.624 223,408.5C 223.346,410.218 223.846,411.885 224.5,413.5C 223.386,418.446 223.219,423.446 224,428.5C 224.333,427.833 224.667,427.167 225,426.5C 227.961,429.296 230.794,432.296 233.5,435.5C 232.189,436.258 231.689,437.258 232,438.5C 233.183,437.269 234.349,437.269 235.5,438.5C 236.23,440.006 236.563,441.34 236.5,442.5C 237.189,440.662 237.522,438.995 237.5,437.5C 238.308,439.423 238.808,441.423 239,443.5C 239.75,444.126 240.584,444.626 241.5,445C 240.273,446.587 240.606,447.921 242.5,449C 241.167,450 241.167,451 242.5,452C 241,455.011 240.166,454.511 240,450.5C 239.356,453.547 237.856,456.047 235.5,458C 236.448,458.483 237.448,458.649 238.5,458.5C 238.508,464.208 238.008,464.541 237,459.5C 235.991,461.025 235.491,462.692 235.5,464.5C 234.178,464.67 233.011,464.337 232,463.5C 231.493,464.996 231.993,466.163 233.5,467C 232.234,467.309 231.067,467.809 230,468.5C 229.141,465.691 227.807,463.691 226,462.5C 225.316,464.479 225.816,466.146 227.5,467.5C 226.418,467.749 225.085,467.915 223.5,468C 224.641,468.741 224.641,469.575 223.5,470.5C 225.002,473.309 226.668,476.142 228.5,479C 228.095,479.945 227.428,480.612 226.5,481C 228.833,482.5 231.167,484 233.5,485.5C 235.35,484.758 236.016,483.758 235.5,482.5C 236.192,483.025 236.692,483.692 237,484.5C 237.333,484.167 237.667,483.833 238,483.5C 238.833,485.5 239.667,487.5 240.5,489.5C 241.425,490.641 242.259,490.641 243,489.5C 244.101,491.394 245.434,492.061 247,491.5C 248.247,493.685 250.08,495.018 252.5,495.5C 254.996,493.579 257.662,492.912 260.5,493.5C 262.49,494.873 264.657,495.873 267,496.5C 275.661,497.047 284.494,496.381 293.5,494.5C 294.772,494.57 295.938,494.903 297,495.5C 298.113,494.24 298.28,493.073 297.5,492C 299.999,492.117 302.665,491.784 305.5,491C 305.833,490 306.167,489 306.5,488C 310.479,487.195 313.479,487.528 315.5,489C 316.958,486.923 317.624,484.59 317.5,482C 316.352,474.782 317.186,474.282 320,480.5C 321.414,476.248 319.914,473.748 315.5,473C 316.747,471.542 316.747,470.042 315.5,468.5C 315.942,467.261 316.609,466.261 317.5,465.5C 320.589,471.102 323.922,476.602 327.5,482C 317.778,490.525 306.445,495.858 293.5,498C 246.994,504.839 214.828,486.672 197,443.5C 186.119,397.436 201.619,363.602 243.5,342C 257.218,336.64 271.218,335.14 285.5,337.5 Z"/></g>
<g><path style="opacity:1" fill="#f4b907" d="M 421.5,337.5 C 413.826,337.334 406.159,337.5 398.5,338C 407.518,338.168 416.518,338.668 425.5,339.5C 418.896,339.63 412.229,339.796 405.5,340C 406.696,340.654 406.696,341.154 405.5,341.5C 404.037,341.368 402.537,341.035 401,340.5C 399.445,342.146 397.779,342.479 396,341.5C 394.739,341.759 393.739,342.426 393,343.5C 390.546,341.987 388.879,342.654 388,345.5C 387.481,344.484 386.647,343.818 385.5,343.5C 380.277,344.577 375.943,347.077 372.5,351C 374.5,351.667 376.5,351.667 378.5,351C 376.405,350.444 376.238,349.944 378,349.5C 379.395,349.78 380.562,350.447 381.5,351.5C 378.762,354.904 375.429,357.571 371.5,359.5C 368.808,365.148 366.141,370.815 363.5,376.5C 364.645,377.891 364.645,379.224 363.5,380.5C 362.914,380.291 362.414,379.957 362,379.5C 362.979,381.279 362.646,382.945 361,384.5C 359.844,383.007 359.01,383.174 358.5,385C 359.708,388.172 359.041,390.839 356.5,393C 356.623,397.052 356.79,401.219 357,405.5C 357.889,404.112 358.389,404.278 358.5,406C 357.833,406.667 357.167,407.333 356.5,408C 355.898,410.479 356.564,412.813 358.5,415C 358.167,415.333 357.833,415.667 357.5,416C 358.978,419.787 361.312,422.954 364.5,425.5C 364.167,426.167 363.833,426.833 363.5,427.5C 364.189,429.444 364.689,431.444 365,433.5C 365.317,431.699 365.984,431.366 367,432.5C 367.49,433.793 367.657,435.127 367.5,436.5C 368.552,436.351 369.552,436.517 370.5,437C 373.004,439.447 373.337,441.781 371.5,444C 371.667,444.5 371.833,445 372,445.5C 373.729,443.069 375.229,443.403 376.5,446.5C 375.975,447.192 375.308,447.692 374.5,448C 376.044,448.29 377.377,448.956 378.5,450C 375.082,452.63 372.248,455.797 370,459.5C 370.617,461.095 370.284,462.428 369,463.5C 368.667,462.833 368.333,462.167 368,461.5C 367.405,462.899 367.572,464.232 368.5,465.5C 367.412,469.386 366.579,469.386 366,465.5C 364.333,466.5 363,467.833 362,469.5C 361.333,468.833 360.667,468.167 360,467.5C 360.138,471.635 361.971,475.469 365.5,479C 364.328,479.419 363.328,480.085 362.5,481C 365.443,481.942 368.276,483.108 371,484.5C 371.333,484.167 371.667,483.833 372,483.5C 372.492,484.549 372.326,485.549 371.5,486.5C 374.949,488.874 378.616,490.874 382.5,492.5C 383.386,493.325 383.719,494.325 383.5,495.5C 348.618,480.736 330.951,454.236 330.5,416C 332.458,381.423 349.125,356.756 380.5,342C 393.853,336.659 407.519,335.159 421.5,337.5 Z"/></g>
<g><path style="opacity:1" fill="#f6bb06" d="M 421.5,337.5 C 451.449,341.283 473.283,356.617 487,383.5C 501.561,421.975 493.727,455.141 463.5,483C 438.755,500.365 412.088,504.531 383.5,495.5C 383.719,494.325 383.386,493.325 382.5,492.5C 378.616,490.874 374.949,488.874 371.5,486.5C 372.326,485.549 372.492,484.549 372,483.5C 371.667,483.833 371.333,484.167 371,484.5C 368.276,483.108 365.443,481.942 362.5,481C 363.328,480.085 364.328,479.419 365.5,479C 361.971,475.469 360.138,471.635 360,467.5C 360.667,468.167 361.333,468.833 362,469.5C 363,467.833 364.333,466.5 366,465.5C 366.579,469.386 367.412,469.386 368.5,465.5C 367.572,464.232 367.405,462.899 368,461.5C 368.333,462.167 368.667,462.833 369,463.5C 370.284,462.428 370.617,461.095 370,459.5C 372.248,455.797 375.082,452.63 378.5,450C 377.377,448.956 376.044,448.29 374.5,448C 375.308,447.692 375.975,447.192 376.5,446.5C 375.229,443.403 373.729,443.069 372,445.5C 371.833,445 371.667,444.5 371.5,444C 373.337,441.781 373.004,439.447 370.5,437C 369.552,436.517 368.552,436.351 367.5,436.5C 367.657,435.127 367.49,433.793 367,432.5C 365.984,431.366 365.317,431.699 365,433.5C 364.689,431.444 364.189,429.444 363.5,427.5C 363.833,426.833 364.167,426.167 364.5,425.5C 361.312,422.954 358.978,419.787 357.5,416C 357.833,415.667 358.167,415.333 358.5,415C 356.564,412.813 355.898,410.479 356.5,408C 357.167,407.333 357.833,406.667 358.5,406C 358.389,404.278 357.889,404.112 357,405.5C 356.79,401.219 356.623,397.052 356.5,393C 359.041,390.839 359.708,388.172 358.5,385C 359.01,383.174 359.844,383.007 361,384.5C 362.646,382.945 362.979,381.279 362,379.5C 362.414,379.957 362.914,380.291 363.5,380.5C 364.645,379.224 364.645,377.891 363.5,376.5C 366.141,370.815 368.808,365.148 371.5,359.5C 375.429,357.571 378.762,354.904 381.5,351.5C 380.562,350.447 379.395,349.78 378,349.5C 376.238,349.944 376.405,350.444 378.5,351C 376.5,351.667 374.5,351.667 372.5,351C 375.943,347.077 380.277,344.577 385.5,343.5C 386.647,343.818 387.481,344.484 388,345.5C 388.879,342.654 390.546,341.987 393,343.5C 393.739,342.426 394.739,341.759 396,341.5C 397.779,342.479 399.445,342.146 401,340.5C 402.537,341.035 404.037,341.368 405.5,341.5C 406.696,341.154 406.696,340.654 405.5,340C 412.229,339.796 418.896,339.63 425.5,339.5C 416.518,338.668 407.518,338.168 398.5,338C 406.159,337.5 413.826,337.334 421.5,337.5 Z"/></g>
<g><path style="opacity:0.467" fill="#4d4d4e" d="M 101.5,333.5 C 102.499,395.998 102.832,458.664 102.5,521.5C 110.167,521.5 117.833,521.5 125.5,521.5C 125.168,458.664 125.501,395.998 126.5,333.5C 126.5,396.5 126.5,459.5 126.5,522.5C 118.167,522.5 109.833,522.5 101.5,522.5C 101.461,506.414 101.461,490.08 101.5,473.5C 101.5,426.833 101.5,380.167 101.5,333.5 Z"/></g>
<g><path style="opacity:0.808" fill="#20201f" d="M 773.5,503.5 C 783.511,502.181 787.678,506.515 786,516.5C 779.998,524.644 774.332,524.311 769,515.5C 768.02,510.476 769.52,506.476 773.5,503.5 Z"/></g>
<g><path style="opacity:0.353" fill="#bab5b6" d="M 781.5,507.5 C 778.833,507.5 776.167,507.5 773.5,507.5C 773.837,511.011 773.837,514.344 773.5,517.5C 769.729,514.095 769.562,510.428 773,506.5C 774.231,505.892 775.564,505.559 777,505.5C 779.008,505.307 780.508,505.974 781.5,507.5 Z"/></g>
<g><path style="opacity:0.969" fill="#c0c0c0" d="M 781.5,507.5 C 783.586,508.148 784.586,509.648 784.5,512C 784.144,518.205 782.811,518.705 780.5,513.5C 781.348,511.591 781.682,509.591 781.5,507.5 Z"/></g>
<g><path style="opacity:0.165" fill="#c2c0c2" d="M 773.5,517.5 C 774.5,517.5 775.5,517.5 776.5,517.5C 776.281,516.325 776.614,515.325 777.5,514.5C 778.941,515.865 780.274,517.365 781.5,519C 778.193,521.336 775.527,520.836 773.5,517.5 Z"/></g>
<g><path style="opacity:0.053" fill="#e4e3e3" d="M 536.5,307.5 C 541.795,307.213 546.962,307.879 552,309.5C 555.455,308.45 558.955,308.283 562.5,309C 563.167,310 563.833,311 564.5,312C 564.486,373.71 564.486,435.543 564.5,497.5C 589.502,497.333 614.502,497.5 639.5,498C 640,498.5 640.5,499 641,499.5C 641.667,506.833 641.667,514.167 641,521.5C 640.626,522.416 640.126,523.25 639.5,524C 604.829,524.833 570.162,524.667 535.5,523.5C 535.336,482.779 534.669,441.279 533.5,399C 534.329,371.905 534.829,344.739 535,317.5C 535.248,314.081 535.748,310.747 536.5,307.5 Z"/></g>
<g><path style="opacity:0.592" fill="#494a4a" d="M 536.5,311.5 C 536.833,311.5 537.167,311.5 537.5,311.5C 537.5,381.5 537.5,451.5 537.5,521.5C 571.167,521.5 604.833,521.5 638.5,521.5C 604.671,522.498 570.671,522.832 536.5,522.5C 536.5,452.167 536.5,381.833 536.5,311.5 Z"/></g>
<g><path style="opacity:0.921" fill="#59585b" d="M 536.5,311.5 C 544.65,310.507 552.983,310.174 561.5,310.5C 561.5,373.5 561.5,436.5 561.5,499.5C 560.501,437.002 560.168,374.336 560.5,311.5C 552.833,311.5 545.167,311.5 537.5,311.5C 537.167,311.5 536.833,311.5 536.5,311.5 Z"/></g>
<g><path style="opacity:0.993" fill="#020102" d="M 537.5,311.5 C 545.167,311.5 552.833,311.5 560.5,311.5C 560.168,374.336 560.501,437.002 561.5,499.5C 587.167,499.5 612.833,499.5 638.5,499.5C 638.5,506.833 638.5,514.167 638.5,521.5C 604.833,521.5 571.167,521.5 537.5,521.5C 537.5,451.5 537.5,381.5 537.5,311.5 Z"/></g>
</svg>
